<?xml version="1.0" standalone="no"?><!DOCTYPE svg PUBLIC "-//W3C//DTD SVG 1.1//EN" "http://www.w3.org/Graphics/SVG/1.1/DTD/svg11.dtd"><svg class="icon" width="200px" height="200.00px" viewBox="0 0 1024 1024" version="1.1" xmlns="http://www.w3.org/2000/svg"><path d="M550.554084 941.466262c-26.472931 23.286356-50.748824 23.173792-76.770478 0.297782-92.218308-81.06427-319.384098-303.308981-319.384098-525.556761 0-193.924711 160.103418-351.134219 357.600491-351.134219 197.49912 0 357.602537 157.209508 357.602537 351.134219C869.600491 638.182864 642.987287 860.157421 550.554084 941.466262zM511.998977 144.419204c-153.633053 0-278.178627 123.707486-278.178627 276.308023 0 219.422432 278.178627 438.84077 278.178627 438.84077s278.17965-219.418338 278.17965-438.84077C790.177604 268.12669 665.634076 144.419204 511.998977 144.419204zM629.329219 482.405985c-21.943778 0-39.730886-17.790178-39.730886-39.730886 0-1.937119 0.303922-3.790326 0.569982-5.653767l-0.333598-0.061398c0.831948-4.606925 1.426489-9.304923 1.426489-14.152325 0-43.773969-35.488259-79.260182-79.262228-79.260182-43.773969 0-79.258135 35.486212-79.258135 79.260182 0 43.776016 35.484166 79.260182 79.258135 79.260182 4.847401 0 9.543354-0.593518 14.152325-1.426489l0.061398 0.337691c1.861394-0.268106 3.714602-0.569982 5.65172-0.569982 21.943778 0 39.730886 17.788132 39.730886 39.730886s-17.788132 39.732933-39.730886 39.732933c-0.411369 0-0.793062-0.109494-1.201361-0.12075-6.170536 0.77055-12.282744 1.75804-18.664082 1.75804-87.649246 0-158.706605-71.053266-158.706605-158.702512s71.057359-158.706605 158.706605-158.706605 158.704558 71.057359 158.704558 158.706605c0 8.156774-0.831948 16.098653-2.048659 23.914666C666.599054 466.73405 649.888464 482.405985 629.329219 482.405985z" /></svg>