<?xml version="1.0" standalone="no"?><!DOCTYPE svg PUBLIC "-//W3C//DTD SVG 1.1//EN" "http://www.w3.org/Graphics/SVG/1.1/DTD/svg11.dtd"><svg class="icon" width="200px" height="200.00px" viewBox="0 0 1024 1024" version="1.1" xmlns="http://www.w3.org/2000/svg"><path fill="#ffffff" d="M899.624806 921.105538 124.37417 921.105538c-22.144346 0-40.099277-17.947767-40.099277-40.099277L84.274894 105.753579c0-22.144346 17.954931-40.099277 40.099277-40.099277l775.249613 0c22.144346 0 40.099277 17.954931 40.099277 40.099277l0 775.252683C939.72306 903.157771 921.768129 921.105538 899.624806 921.105538zM164.473447 145.860019l0 679.580716c11.865235-35.283598 34.277688-74.28589 76.720336-95.693456 56.996109-28.730345 35.053354-5.40408 105.032148-34.812877 69.976748-29.369911 86.561471-39.613206 86.561471-39.613206l0.659009-67.691705c0 0-26.209942-20.312628-34.355459-84.010369-16.400528 4.803399-21.817911-19.508309-22.783913-34.988886-0.881067-14.951527-9.489118-61.656245 10.514471-57.440224-4.092201-31.190373-7.02909-59.306734-5.586229-74.207096 5.012154-52.297087 54.725392-106.937544 131.301442-110.931508 90.066295 3.987824 125.746936 58.595536 130.751926 110.892623 1.462305 14.900362-1.755993 43.042305-5.848195 74.17435 20.010753-4.163833 11.311627 42.468231 10.339486 57.426921-0.881067 15.474436-6.42227 39.70735-22.778796 34.917254-8.17724 63.685461-34.387181 83.839477-34.387181 83.839477l0.613984 67.347874c0 0 16.570397 9.593496 86.548168 38.965453 69.990051 29.396517 48.035016 7.414877 105.038288 36.157501 42.436508 21.393239 64.847937 60.383252 76.713172 95.66685L859.527576 145.860019 164.473447 145.860019z" /></svg>