<?xml version="1.0" standalone="no"?><!DOCTYPE svg PUBLIC "-//W3C//DTD SVG 1.1//EN" "http://www.w3.org/Graphics/SVG/1.1/DTD/svg11.dtd"><svg class="icon" width="200px" height="200.00px" viewBox="0 0 1024 1024" version="1.1" xmlns="http://www.w3.org/2000/svg"><path  d="M509.672727 986.763636c-16.290909 0-30.254545-4.654545-48.872727-13.963636L32.581818 781.963636C6.981818 768 0 721.454545 0 695.854545v-6.981818l6.981818 4.654546c27.927273 16.290909 65.163636 32.581818 67.490909 32.581818h2.327273l437.527273 200.145454 435.2-200.145454c2.327273 0 18.618182-9.309091 34.909091-16.290909l39.563636-18.618182v6.981818c0 27.927273-9.309091 74.472727-32.581818 86.109091l-430.545455 190.836364c-18.618182 6.981818-34.909091 11.636364-51.2 11.636363z m0-200.145454c-16.290909 0-30.254545-4.654545-48.872727-13.963637L32.581818 581.818182C6.981818 567.854545 0 521.309091 0 495.709091V488.727273l6.981818 4.654545c27.927273 16.290909 65.163636 32.581818 67.490909 32.581818h2.327273l437.527273 200.145455 435.2-200.145455c2.327273 0 18.618182-9.309091 34.909091-18.618181L1024 488.727273v6.981818c0 27.927273-9.309091 74.472727-32.581818 86.109091l-430.545455 190.836363c-18.618182 9.309091-34.909091 13.963636-51.2 13.963637z m0-200.145455c-16.290909 0-30.254545-4.654545-48.872727-13.963636L32.581818 379.345455c-16.290909-9.309091-27.927273-25.6-27.927273-46.545455 0-23.272727 9.309091-44.218182 27.927273-55.854545l430.545455-225.745455c20.945455-9.309091 37.236364-13.963636 51.2-13.963636 16.290909 0 30.254545 4.654545 48.872727 16.290909L993.745455 279.272727c16.290909 9.309091 27.927273 30.254545 25.6 53.527273 0 23.272727-11.636364 41.890909-27.927273 48.872727l-430.545455 190.836364c-18.618182 6.981818-34.909091 13.963636-51.2 13.963636z m4.654546-79.127272l428.218182-179.2-428.218182-228.072728H512L83.781818 328.145455l430.545455 179.2z" /></svg>