<?xml version="1.0" standalone="no"?><!DOCTYPE svg PUBLIC "-//W3C//DTD SVG 1.1//EN" "http://www.w3.org/Graphics/SVG/1.1/DTD/svg11.dtd"><svg class="icon" width="200px" height="200.00px" viewBox="0 0 1024 1024" version="1.1" xmlns="http://www.w3.org/2000/svg"><path d="M512 1024a512 512 0 1 1 512-512 512 512 0 0 1-512 512z m0-981.333333a469.333333 469.333333 0 1 0 469.333333 469.333333A469.333333 469.333333 0 0 0 512 42.666667z m164.586667 484.586666a19.413333 19.413333 0 0 1-4.629334 3.072L440.362667 761.92a20.48 20.48 0 0 1-28.949334-28.949333L632.362667 512l-199.616-199.637333a20.48 20.48 0 0 1 28.949333-28.949334l210.261333 210.261334a19.413333 19.413333 0 0 1 4.629334 3.072 22.826667 22.826667 0 0 1 0 30.506666z" /></svg>