<?xml version="1.0" standalone="no"?><!DOCTYPE svg PUBLIC "-//W3C//DTD SVG 1.1//EN" "http://www.w3.org/Graphics/SVG/1.1/DTD/svg11.dtd"><svg class="icon" width="200px" height="199.03px" viewBox="0 0 1029 1024" version="1.1" xmlns="http://www.w3.org/2000/svg"><path d="M168.18688 442.03008c71.36256 19.80416 142.72512 39.61856 214.08768 59.43808 27.40736 7.6288 39.03488-39.5264 11.63264-47.12448C322.54976 434.52928 251.1872 414.72 179.81952 394.91584c-27.392-7.60832-39.01952 39.51104-11.63264 47.11424zM659.33312 835.66592l-137.1648 125.80352c-24.36608 22.35904 11.92448 58.4704 36.1984 36.1984l137.1648-125.80352c24.38656-22.35904-11.91936-58.4704-36.1984-36.1984zM555.9296 384.9216l279.20896-217.81504-43.6992-18.10432-2.88256 186.79808c-0.512 33.03424 50.688 32.98304 51.2 0l2.88256-186.79808c0.37888-24.51968-27.23328-30.94528-43.6992-18.10432l-279.20384 217.81504c-26.00448 20.29568 10.496 56.25856 36.19328 36.20864zM815.93344 631.95136m-43.7504 0a43.7504 43.7504 0 1 0 87.5008 0 43.7504 43.7504 0 1 0-87.5008 0ZM789.0944 498.11968l61.45536 2.33984c33.02912 1.25952 32.91136-49.9456 0-51.2l-61.45536-2.33984c-33.02912-1.25952-32.91136 49.9456 0 51.2zM686.55104 588.42112l32.75264-52.06016c17.6384-28.032-26.68032-53.70368-44.2112-25.84064l-32.75264 52.06016c-17.6384 28.032 26.68032 53.70368 44.2112 25.84064zM713.40032 721.99168l-28.70272-54.39488c-15.41632-29.2096-59.60704-3.33312-44.2112 25.84064l28.70272 54.39488c15.41632 29.2096 59.60704 3.33312 44.2112-25.84064zM842.78272 765.76768l-61.46048-2.33472c-33.02912-1.2544-32.91136 49.95072 0 51.2l61.46048 2.33472c33.03424 1.25952 32.91136-49.9456 0-51.2zM945.32608 675.48672l-32.75264 52.05504c-17.6384 28.03712 26.68032 53.70368 44.2112 25.84064l32.75264-52.05504c17.6384-28.03712-26.68032-53.7088-44.2112-25.84064zM918.48704 541.9008l28.6976 54.40512c15.4112 29.2096 59.60192 3.33312 44.2112-25.84064l-28.6976-54.40512c-15.4112-29.21472-59.60192-3.33312-44.2112 25.84064zM872.6528 487.77728c7.02976-10.09152 19.51744 1.11616 26.53184 5.33504 7.90016 4.74624 25.50784 10.83904 19.29728 22.94784-15.04256 29.31712 29.1328 55.22432 44.2112 25.84064 10.496-20.44928 10.34752-39.99744 0.7168-60.69248-6.79936-14.60736-22.2464-22.60992-35.3792-30.50496-13.4656-8.09472-26.3168-16.8448-42.52672-18.07872-24.05376-1.83296-43.65312 10.06592-57.05728 29.31712-18.92352 27.16672 25.48736 52.72064 44.20608 25.83552zM719.30368 510.52032c-5.10976-10.88512 11.37152-16.39936 18.25792-20.21888 8.3456-4.62848 21.88288-16.54272 29.42464-4.864 17.83296 27.62752 62.17728 1.98656 44.2112-25.84064-12.35968-19.1488-29.39904-28.73344-51.93728-30.72-16.20992-1.4336-30.9504 8.0128-44.48256 15.51872-13.60384 7.54176-27.53536 14.24896-36.61824 27.53536-13.74208 20.10112-13.11232 43.02848-3.06688 64.42496 14.02368 29.8752 58.15296 3.8656 44.2112-25.83552zM662.58944 654.91456c-12.01152-1.1776-8.66304-17.3824-8.51968-25.50784 0.16384-9.48736-3.37408-27.43296 10.37312-28.30336 32.78336-2.0736 32.98304-53.28384 0-51.2-23.2704 1.46944-40.85248 11.39712-53.54496 31.0528-8.41728 13.03552-7.69536 29.56288-7.9616 44.42112-0.256 14.49472-1.34656 28.69248 4.19328 42.48064 9.6512 24.00768 30.60736 35.8144 55.45472 38.26176 32.86016 3.23072 32.55296-48.00512 0.00512-51.20512zM759.2192 776.1152c-7.02976 10.09152-19.52256-1.12128-26.53184-5.33504-7.89504-4.75136-25.50272-10.84416-19.29216-22.94784 15.04256-29.31712-29.12768-55.2192-44.2112-25.84064-10.496 20.44928-10.34752 39.99744-0.7168 60.69248 6.79424 14.60736 22.2464 22.60992 35.37408 30.50496 13.4656 8.09984 26.3168 16.84992 42.52672 18.08384 24.05888 1.83296 43.648-10.07616 57.05728-29.31712 18.93376-27.16672-25.47712-52.72064-44.20608-25.84064zM912.56832 753.3824c5.10976 10.89024-11.37664 16.39936-18.25792 20.21376-8.3456 4.61824-21.88288 16.53248-29.41952 4.85376-17.82784-27.63264-62.17216-1.9968-44.2112 25.84064 12.35456 19.14368 29.39392 28.72832 51.92704 30.72 16.2048 1.4336 30.9504-8.0128 44.48256-15.5136 13.60896-7.53664 27.53536-14.2336 36.61824-27.53024 13.7472-20.10112 13.11232-43.02336 3.072-64.42496-14.01344-29.8752-58.14272-3.86048-44.2112 25.84064zM969.28768 608.98304c12.01152 1.1776 8.65792 17.37216 8.51456 25.49248-0.16896 9.48736 3.36896 27.45856-10.37312 28.32384-32.78336 2.06336-32.98304 53.27872 0 51.2 23.2704-1.46432 40.85248-11.392 53.53984-31.04768 8.41728-13.04576 7.69536-29.58336 7.9616-44.4416 0.26112-14.49472 1.3568-28.6976-4.18816-42.47552-9.65632-24.00768-30.60224-35.80928-55.4496-38.25664-32.86016-3.2256-32.54784 48-0.00512 51.20512zM505.81504 366.81728v612.75136l32.38912-24.68352c-164.85888-62.01344-329.728-124.03712-494.60224-186.05056l18.79552 24.68352V241.3312l-32.40448 24.68352 494.60224 125.48608c32.02048 8.12544 45.5936-41.25696 13.60896-49.37216L43.60192 216.64256c-16.09216-4.08064-32.40448 7.78752-32.40448 24.68352v552.18688c0 12.18048 7.9872 20.61824 18.79552 24.68352 164.87424 62.01344 329.74336 124.03712 494.60224 186.05056 15.83104 5.95456 32.40448-9.19552 32.40448-24.68352V366.81216c0-33.01376-51.18464-33.01376-51.18464 0.00512zM49.7152 255.29344l348.70784-157.98784-19.72736 2.58048 427.36128 72.064c32.28672 5.44256 46.11584-43.88864 13.60896-49.37216L442.04544 58.90048l-49.42336-8.33024c-16.256-2.7392-34.43712 9.05216-48.9472 15.62112A2534207.4112 2534207.4112 0 0 1 23.86944 211.08224c-30.0288 13.61408-3.97824 57.728 25.84576 44.2112z" /></svg>