<?xml version="1.0" standalone="no"?><!DOCTYPE svg PUBLIC "-//W3C//DTD SVG 1.1//EN" "http://www.w3.org/Graphics/SVG/1.1/DTD/svg11.dtd"><svg class="icon" width="200px" height="200.00px" viewBox="0 0 1024 1024" version="1.1" xmlns="http://www.w3.org/2000/svg"><path  d="M852.149 736.914H171.851c-38.598 0-70-31.401-70-70V234.341c0-38.598 31.402-70 70-70h680.298c38.598 0 70 31.402 70 70v432.573c0 38.599-31.402 70-70 70zM171.851 224.341c-5.514 0-10 4.486-10 10v432.573c0 5.514 4.486 10 10 10h680.298c5.514 0 10-4.486 10-10V234.341c0-5.514-4.486-10-10-10H171.851zM288 605.628c-7.678 0-15.355-2.929-21.213-8.787-11.716-11.716-11.716-30.71 0-42.426l165-165a30 30 0 0 1 42.426 0L552 467.201l162.787-162.787c11.715-11.716 30.711-11.716 42.426 0 11.716 11.716 11.716 30.711 0 42.427l-184 184c-11.715 11.715-30.711 11.715-42.426 0L453 453.054 309.212 596.841c-5.857 5.858-13.535 8.787-21.212 8.787zM724 859.659H300c-16.568 0-30-13.432-30-30s13.432-30 30-30h424c16.568 0 30 13.432 30 30s-13.432 30-30 30z" /></svg>