<?xml version="1.0" standalone="no"?><!DOCTYPE svg PUBLIC "-//W3C//DTD SVG 1.1//EN" "http://www.w3.org/Graphics/SVG/1.1/DTD/svg11.dtd"><svg class="icon" width="200px" height="200.00px" viewBox="0 0 1024 1024" version="1.1" xmlns="http://www.w3.org/2000/svg"><path  d="M320.48412862 483.72037994c0-64.57179914-52.4744061-117.04620524-117.04620522-117.04620524s-117.04620524 52.4744061-117.04620525 117.04620524 52.4744061 117.04620524 117.04620525 117.04620524c64.72890814 0 117.04620524-52.4744061 117.04620522-117.04620524z m-292.53695858 0c0-96.93625319 78.55450015-175.49075335 175.49075336-175.49075335s175.49075335 78.55450015 175.49075333 175.49075335-78.55450015 175.49075335-175.49075333 175.49075335-175.49075335-78.55450015-175.49075336-175.49075335z m0 0"  /><path  d="M934.93742884 161.80403829c0-40.37701308-32.67867206-73.21279417-73.21279416-73.21279412-40.37701308 0-73.21279417 32.67867206-73.21279413 73.21279412 0 40.37701308 32.67867206 73.21279417 73.21279413 73.21279417s73.21279417-32.83578106 73.21279416-73.21279417z m-204.8701364 0c0-72.74146714 58.91587511-131.65734227 131.65734224-131.65734225s131.65734227 58.91587511 131.65734227 131.65734225-58.91587511 131.65734227-131.65734227 131.65734228c-72.58435815 0-131.65734227-58.91587511-131.65734224-131.65734228z m0 0M934.93742884 798.25259857c0-76.82630115-62.21516412-139.04146527-139.04146526-139.04146528s-139.04146527 62.21516412-139.0414653 139.04146528 62.21516412 139.04146527 139.0414653 139.04146528c76.82630115-0.15710901 139.04146527-62.37227313 139.04146526-139.04146528z m-336.52747866 0c0-109.03364622 88.45236718-197.48601341 197.4860134-197.48601339s197.48601341 88.45236718 197.48601337 197.48601339-88.45236718 197.48601341-197.48601337 197.48601339S598.40995018 907.28624479 598.40995018 798.25259857z m0 0"  /><path  d="M774.05781251 169.81659733l23.88056806 53.41706012-444.93268889 198.11444937-23.72345903-53.4170601 444.77557986-198.11444939z m0 0M642.24336126 762.7459645l26.55142104-52.16018811-333.22818965-169.67772034-26.55142106 52.16018811 333.22818967 169.67772034z m0 0"  /></svg>