<?xml version="1.0" standalone="no"?><!DOCTYPE svg PUBLIC "-//W3C//DTD SVG 1.1//EN" "http://www.w3.org/Graphics/SVG/1.1/DTD/svg11.dtd"><svg class="icon" width="200px" height="200.00px" viewBox="0 0 1024 1024" version="1.1" xmlns="http://www.w3.org/2000/svg"><path d="M511.93856 320.70656c85.12512 0 154.24512 69.20192 154.24512 154.22464 0 85.0432-69.10976 154.23488-154.24512 154.23488-85.00224 0-154.112-69.19168-154.112-154.23488 0-85.02272 69.10976-154.22464 154.112-154.22464z m1.46432 335.9232c-84.13184 0-152.61696 68.42368-152.61696 152.56576v73.28768h305.07008v-73.28768c0-84.14208-68.47488-152.56576-152.45312-152.56576z m222.90432-339.5072c31.6416 44.7488 50.55488 99.04128 50.55488 157.80864 0 69.61152-26.81856 132.5568-69.69344 181.07392l39.79264 39.74144c52.95104-58.56256 85.42208-135.87456 85.42208-220.80512 0-74.1376-24.92416-142.39744-66.28352-197.55008l-39.79264 39.7312z m-443.21792-6.73792L253.09184 270.336c-44.544 56.30976-71.46496 127.34464-71.46496 204.5952 0 88.07424 34.92864 168.01792 91.19744 227.26656l39.5776-39.4752c-46.336-49.22368-75.264-115.01568-75.264-187.79136 0-61.94176 21.26848-118.50752 55.95136-164.54656z m612.4544-162.39616l-39.46496 39.41376c63.96928 78.55104 102.36928 178.59584 102.36928 287.52896 0 119.71584-46.61248 228.48512-122.30656 309.98528l39.23968 39.17824C971.008 732.49792 1024 609.92512 1024 474.94144c0-124.23168-44.56448-238.2336-118.45632-326.95296z m-741.98016 32.69632l-39.22944-39.168C47.09376 231.17824 0 347.55584 0 474.9312c0 138.11712 55.30624 263.46496 144.49664 355.66592l39.10656-39.19872C104.50944 709.24288 55.552 597.79072 55.552 474.9312c0-112.10752 40.73472-214.69184 108.01152-294.2464z"  /></svg>