<?xml version="1.0" standalone="no"?><!DOCTYPE svg PUBLIC "-//W3C//DTD SVG 1.1//EN" "http://www.w3.org/Graphics/SVG/1.1/DTD/svg11.dtd"><svg class="icon" width="200px" height="181.24px" viewBox="0 0 1130 1024" version="1.1" xmlns="http://www.w3.org/2000/svg"><path d="M423.535859 640.663936a282.456786 282.456786 0 1 1 199.706688-82.737112 280.586727 280.586727 0 0 1-199.706688 82.737112z m0-481.799851c-109.917896 0-199.330078 89.412182-199.330078 199.330079s89.412182 199.330078 199.330078 199.330078 199.278132-89.399196 199.278133-199.304105-89.373223-199.330078-199.278133-199.330079zM805.495353 1024H41.56338a41.55686 41.55686 0 0 1-41.556861-41.55686 423.52934 423.52934 0 1 1 847.045694 0 41.55686 41.55686 0 0 1-41.55686 41.55686z m-719.829755-83.113721h675.727536c-20.648565-168.084514-164.318423-298.689934-337.857275-298.689934s-317.221697 130.592434-337.870261 298.689934zM752.263612 583.185603a41.55686 41.55686 0 0 1-10.85673-81.672217 213.264613 213.264613 0 0 0 157.02-205.485688c0-117.411117-95.50286-212.913977-212.97891-212.913977a213.23864 213.23864 0 0 0-62.620994 9.337307 41.55686 41.55686 0 1 1-24.349723-79.373603 296.09263 296.09263 0 0 1 383.102307 283.015205c0 133.358562-89.801778 250.860585-218.381301 285.703416a41.55686 41.55686 0 0 1-10.934649 1.389557zM1089.030019 981.430191h-138.955752a41.55686 41.55686 0 0 1 0-83.113721h95.035345a361.362874 361.362874 0 0 0-294.910857-314.455568 41.565951 41.565951 0 0 1 14.739699-81.815069 445.190854 445.190854 0 0 1 365.648426 437.801525 41.55686 41.55686 0 0 1-41.556861 41.55686z" /></svg>