<?xml version="1.0" standalone="no"?><!DOCTYPE svg PUBLIC "-//W3C//DTD SVG 1.1//EN" "http://www.w3.org/Graphics/SVG/1.1/DTD/svg11.dtd"><svg class="icon" width="200px" height="200.00px" viewBox="0 0 1024 1024" version="1.1" xmlns="http://www.w3.org/2000/svg"><path d="M146.508283 383.335618h545.8172c44.661176 0 69.829392 39.262212 75.153654 64.24214 63.221904 8.153704 199.12106 78.582753 189.745529 252.028037-9.377578 173.448354-183.631274 226.163973-256.113076 217.011522-20.225647 51.249221-67.173912 101.217263-125.379568 101.217263H264.384971c-64.794725 0-115.862821-59.57791-130.780579-116.226095-7.764847-29.488615-53.823859-378.150526-61.041238-420.617733-9.518794-56.009641 27.638477-97.655134 73.945129-97.655134z m618.300025 109.734241L710.628338 873.053126c75.41255 0.648776 174.261882-36.391838 200.610994-159.608138 24.892947-116.411313-79.071893-209.391984-146.431024-220.375129z m-650.146337-26.496468c1.831718 15.419178 52.577472 365.485065 59.943231 416.730193 6.315846 43.928488 51.616588 90.052992 87.583754 90.602508 35.966143 0.548492 276.754185 0 308.052005 0 37.522592 0 85.845157-36.423561 93.530186-89.869821 8.751315-60.829414 58.555627-402.255527 60.770062-417.46288 2.214435-15.208377-10.021238-39.800471-39.838334-39.650045-39.168068 0.196475-496.299413 1.101077-530.506492-0.11461-30.931476-1.098008-41.36613 24.345478-39.534412 39.764655z m310.063825-96.139617c42.831504-15.375176 86.212524-54.363142 71.384817-115.313306-14.298658-58.778708-148.782581-68.484767-144.964626-106.528222C354.961896 110.549815 461.712175 23.853267 502.701728 4.726651c0 0-191.092199 51.615565-195.485253 140.022057-4.39203 88.407516 136.938835 81.134879 145.514142 129.040959 8.575306 47.908126-28.004821 96.644107-28.004821 96.644107z" /></svg>